# xmcd CD database file
#
# Track frame offsets:
#	150
#	15653
#	28824
#
# Disc length: 556 seconds
#
# Revision: 0
# Processed by: cddbd v1.5.1PL0 Copyright (c) Steve Scherf et al.
# Submitted via: CDex 1.50beta10
#
DISCID=1b022a03
DTITLE=Kizan's - VIOLENT
DYEAR=2005
DGENRE=Electronic
TTITLE0=KIZAN/VIOLENT
TTITLE1=KIZAN/NEKOMIMI GIRL
TTITLE2=KIZAN/ORSE
EXTD=YEAR: 2005
EXTT0=
EXTT1=
EXTT2=
PLAYORDER=
